<svg xmlns="http://www.w3.org/2000/svg" width="285" height="38" viewBox="0 0 285 38">
    <g fill="none" fill-rule="nonzero">
        <path fill="#292929" d="M38.418 18.207L19.272 37.536.126 18.206l8.023-10.9h22.246l8.023 10.9zm-27.867-6.211l-4.242 5.762 12.963 13.088 12.963-13.088-4.241-5.762H10.55zM47.669 12.908h7.104l2.487 12.53 2.486-12.53h7.259l2.78 12.53 1.76-12.53h5.282l-3.46 16.528h-8.586l-2.147-10.692-1.946 10.692h-9.02zM90.285 29.881c-1.215 0-2.296-.112-3.243-.337-.947-.225-1.776-.537-2.487-.935a7.193 7.193 0 0 1-3.027-3.201 8.367 8.367 0 0 1-.671-2.038 11.362 11.362 0 0 1 0-4.327c.139-.71.363-1.39.671-2.038.31-.648.71-1.245 1.205-1.792a7.177 7.177 0 0 1 1.815-1.424c.715-.404 1.547-.72 2.494-.95.947-.23 2.028-.345 3.243-.345 1.215 0 2.296.115 3.243.345.948.23 1.78.546 2.495.95.715.403 1.32.878 1.815 1.424a7.424 7.424 0 0 1 1.204 1.792c.31.649.533 1.328.672 2.038.139.71.209 1.427.209 2.152 0 .735-.07 1.46-.209 2.175a8.391 8.391 0 0 1-.672 2.038 7.206 7.206 0 0 1-3.027 3.202c-.71.397-1.54.709-2.487.934-.947.225-2.028.337-3.243.337zm-2.965-8.686c0 .551.052 1.09.155 1.616.103.526.27.996.501 1.41.232.413.536.745.912.995.375.25.842.376 1.397.376.557 0 1.022-.125 1.398-.376.376-.25.68-.582.911-.996a4.7 4.7 0 0 0 .502-1.409 8.39 8.39 0 0 0 .155-1.616c0-.552-.052-1.09-.155-1.616a4.7 4.7 0 0 0-.502-1.41 2.913 2.913 0 0 0-.91-1.002c-.377-.256-.842-.383-1.399-.383-.555 0-1.022.127-1.397.383-.376.255-.68.59-.912 1.003a4.716 4.716 0 0 0-.501 1.409 8.382 8.382 0 0 0-.155 1.616zM105.118 12.908h6.75c-.094.296-.171.569-.233.82a6.54 6.54 0 0 0-.139.742 11.827 11.827 0 0 0-.092 1.548c.278-.46.638-.904 1.081-1.333.443-.43.94-.804 1.49-1.126a8.507 8.507 0 0 1 1.76-.774 6.323 6.323 0 0 1 1.893-.29 5.293 5.293 0 0 1 2.888.857c.443.286.85.638 1.22 1.057.37.419.69.909.957 1.47.32-.49.734-.942 1.244-1.355a8.797 8.797 0 0 1 1.69-1.072 9.705 9.705 0 0 1 1.97-.705 8.805 8.805 0 0 1 2.077-.253c1.112 0 2.057.159 2.834.475.777.317 1.406.766 1.884 1.348.48.582.827 1.282 1.043 2.099.216.816.324 1.72.324 2.711v10.31h-6.672v-9.345c0-.296-.033-.635-.1-1.018a3.553 3.553 0 0 0-.378-1.088 2.566 2.566 0 0 0-.765-.865c-.324-.236-.749-.353-1.274-.353-.36 0-.7.087-1.02.26-.319.174-.602.404-.849.69a3.363 3.363 0 0 0-.587.98 3.081 3.081 0 0 0-.216 1.134v9.604h-6.672v-9.344c0-.418-.038-.827-.115-1.225a3.293 3.293 0 0 0-.395-1.065 2.123 2.123 0 0 0-.756-.75c-.32-.19-.721-.284-1.205-.284-.34 0-.687.064-1.042.191a3.46 3.46 0 0 0-.958.521c-.283.22-.515.483-.695.79-.18.306-.27.638-.27.995v10.171h-6.672V12.908zM157.465 28.778c-.968.317-2.013.58-3.136.789a19.09 19.09 0 0 1-3.505.314 13.65 13.65 0 0 1-3.8-.52c-1.205-.348-2.265-.89-3.181-1.625-.917-.735-1.645-1.667-2.186-2.796-.54-1.128-.81-2.474-.81-4.036 0-.889.139-1.713.417-2.474a7.744 7.744 0 0 1 1.135-2.075 8.573 8.573 0 0 1 1.683-1.655 10.74 10.74 0 0 1 2.07-1.21 11.662 11.662 0 0 1 2.277-.743c.783-.168 1.55-.253 2.302-.253 1.184 0 2.23.13 3.135.39.906.261 1.66.61 2.263 1.05.602.44 1.058.95 1.366 1.532.31.582.464 1.2.464 1.854 0 .796-.137 1.475-.41 2.037a4.232 4.232 0 0 1-1.096 1.417 5.273 5.273 0 0 1-1.59.904c-.603.22-1.24.387-1.908.505a15.82 15.82 0 0 1-2.046.222c-.696.031-1.357.046-1.985.046-.216 0-.425-.003-.625-.007-.202-.005-.4-.008-.595-.008.082.582.244 1.072.486 1.47.242.399.546.723.911.973.366.25.788.43 1.267.536.478.107.991.162 1.536.162.413 0 .853-.031 1.321-.092.469-.062.942-.146 1.42-.254.48-.107.958-.229 1.437-.367.479-.138.94-.283 1.383-.437v4.35zm-9.9-8.7c.247-.011.563-.027.95-.047.386-.02.795-.056 1.228-.107.432-.051.865-.123 1.296-.215.433-.092.824-.209 1.175-.352.35-.143.633-.322.849-.536.216-.215.324-.475.324-.781 0-.521-.208-.937-.625-1.249-.417-.311-.996-.467-1.738-.467-.34 0-.705.048-1.096.145a2.795 2.795 0 0 0-1.097.56c-.34.275-.628.658-.865 1.148-.236.49-.37 1.124-.401 1.9zM163.633 12.908h6.672a22.56 22.56 0 0 0-.186 1.34c-.061.547-.092 1.11-.092 1.693.35-.521.79-.993 1.32-1.417a8.848 8.848 0 0 1 1.753-1.088 9.916 9.916 0 0 1 4.2-.942c.804 0 1.566.12 2.287.36.72.24 1.354.62 1.9 1.141.545.521.978 1.198 1.297 2.03.319.833.478 1.84.478 3.025v10.386h-6.671v-9.42c0-.633-.067-1.16-.201-1.578-.134-.419-.32-.75-.556-.996a1.974 1.974 0 0 0-.842-.52 3.499 3.499 0 0 0-1.058-.154c-.412 0-.818.07-1.22.207a4.276 4.276 0 0 0-1.097.559c-.33.235-.612.51-.849.827a2.501 2.501 0 0 0-.463 1.011v10.064h-6.672V12.908zM201.724 29.881a6.688 6.688 0 0 1-3.204-.835 6.161 6.161 0 0 1-1.336-.996 5.831 5.831 0 0 1-1.02-1.34v2.726h-6.672V5.907h6.673v9.268c.236-.388.56-.745.973-1.072.411-.327.875-.61 1.39-.85a8.168 8.168 0 0 1 1.652-.56 7.97 7.97 0 0 1 1.76-.199c.927 0 1.828.153 2.704.46a6.048 6.048 0 0 1 2.331 1.493c.68.69 1.228 1.588 1.645 2.696.417 1.109.626 2.46.626 4.052 0 1.511-.204 2.813-.61 3.907-.407 1.092-.953 1.993-1.638 2.703a6.346 6.346 0 0 1-2.393 1.57 8.239 8.239 0 0 1-2.88.506zm.85-8.67c0-.838-.093-1.54-.278-2.107-.185-.567-.433-1.024-.741-1.37a2.68 2.68 0 0 0-1.043-.744 3.272 3.272 0 0 0-1.182-.222c-.401 0-.79.074-1.166.222a2.586 2.586 0 0 0-1.011.743c-.298.347-.538.804-.718 1.371-.18.567-.27 1.264-.27 2.091 0 .837.09 1.54.27 2.106.18.567.42 1.022.718 1.364.299.342.638.587 1.02.735.38.148.771.222 1.173.222a3.27 3.27 0 0 0 1.181-.222 2.646 2.646 0 0 0 1.035-.735c.304-.342.549-.794.734-1.356.185-.561.278-1.261.278-2.099zM221.237 25.285h5.977a21.886 21.886 0 0 0-.286 1.984c-.067.679-.1 1.401-.1 2.167h-13.406v-4.151l5.869-8.593h-5.87l.387-3.784h13.02v3.876l-5.591 8.501z"/>
        <path fill="#FF231E" d="M237.212 29.881c-.69 0-1.264-.097-1.722-.292a3.585 3.585 0 0 1-1.166-.773 3.364 3.364 0 0 1-.734-1.103 3.301 3.301 0 0 1-.254-1.263c0-.409.087-.818.262-1.226.175-.409.427-.776.757-1.103.33-.327.723-.592 1.182-.797.458-.204 1.022-.306 1.69-.306.69 0 1.277.102 1.761.306.484.205.899.47 1.243.797.346.327.61.692.796 1.095a2.9 2.9 0 0 1 .278 1.218c0 .44-.09.866-.27 1.28-.18.413-.438.78-.773 1.102a3.75 3.75 0 0 1-1.235.773c-.49.195-1.094.292-1.815.292z"/>
        <path fill="#292929" d="M248.446 12.908h6.348c-.02.266-.036.559-.047.88-.01.322-.015.66-.015 1.012v2.09c.206-.5.474-1.013.803-1.539.33-.526.718-.998 1.166-1.417a5.962 5.962 0 0 1 1.53-1.034c.57-.27 1.212-.406 1.922-.406a4.692 4.692 0 0 1 1.352.207c.138.046.254.1.347.161l-.54 6.311a7.957 7.957 0 0 0-1.468-.39 8.25 8.25 0 0 0-1.344-.13c-.525 0-.986.063-1.382.19a3.518 3.518 0 0 0-1.011.498 2.626 2.626 0 0 0-.657.674 2.48 2.48 0 0 0-.332.72v8.701h-6.672V12.908zM284.854 29.436h-6.656l.139-1.057c.04-.326.077-.694.108-1.102.031-.409.057-.833.077-1.272a6.533 6.533 0 0 1-1.166 1.616 7.723 7.723 0 0 1-1.552 1.218 7.43 7.43 0 0 1-1.807.774 7.141 7.141 0 0 1-1.93.268 6.67 6.67 0 0 1-2.286-.391 5.001 5.001 0 0 1-1.907-1.24c-.551-.567-.99-1.297-1.313-2.191-.325-.894-.487-1.974-.487-3.24v-9.911h6.672v9.298c0 .634.059 1.164.178 1.593.118.429.28.776.486 1.042.206.265.443.457.71.574.268.118.551.177.85.177.35 0 .703-.072 1.058-.215.355-.143.68-.337.973-.582.293-.245.546-.533.757-.866.21-.332.352-.686.425-1.064v-9.957h6.671v16.528z"/>
        <path fill="#FF321E" d="M10.865 13.498c0 5.066 1.298 10.966 4.066 14.843.988 1.385 3.16 1.225 3.309-1.1.088-1.391.175-2.853.26-4.57.503 1.252 1.459 2.719 2.113 3.29 1.773 1.553 3.427.195 3.55-1.903.42-7.169 1.396-14.754 2.78-22.64.272-1.559-1.245-2.106-2.096-.223-1.765 3.907-4.23 11.335-4.34 16.377-.372-1.333-.9-2.592-1.471-3.85-.679-1.497-2.039-1.398-2.764.898-.714 2.257-1.176 4.762-1.396 6.248-1.242-2.365-2.074-5.26-2.792-7.752-.456-1.583-1.219-.734-1.219.382z"/>
    </g>
</svg>
